<svg width="51" height="51" viewBox="0 0 51 51" fill="none" xmlns="http://www.w3.org/2000/svg">
<rect width="51" height="51" rx="10" fill="#222222"/>
<path fill-rule="evenodd" clip-rule="evenodd" d="M22.9373 9.48253C23.2951 9.42664 23.6525 9.58495 23.8485 9.88617L27.5159 15.5213H43.3288C43.6377 15.5213 43.9256 15.6755 44.0944 15.9314C44.2631 16.1872 44.2898 16.51 44.1653 16.7896L40.7905 24.3692C40.7322 24.5002 40.6433 24.6156 40.5311 24.7059L32.9933 30.7756L34.5293 40.4847C34.6073 40.978 34.2663 41.4404 33.7675 41.5176C33.2688 41.5947 32.8012 41.2574 32.7232 40.7642L31.227 31.3064H27.0172C26.6482 31.3064 26.3154 31.0869 26.1735 30.7501L24.7674 27.4122C24.5732 26.9514 24.7935 26.4221 25.2595 26.2301C25.7255 26.0381 26.2606 26.256 26.4548 26.7169L27.6266 29.4984H31.6841L39.2062 23.4413L41.9276 17.3292H27.0172C26.7064 17.3292 26.4169 17.173 26.2487 16.9145L23.4335 12.5889L18.831 29.7991C18.725 30.1957 18.3622 30.4719 17.9474 30.4719H14.171L9.81899 39.7204H23.783C24.2878 39.7204 24.697 40.1252 24.697 40.6244C24.697 41.1237 24.2878 41.5284 23.783 41.5284H8.38544C8.07323 41.5284 7.78261 41.3708 7.61476 41.1104C7.4469 40.8501 7.42504 40.523 7.55678 40.243L12.7596 29.1865C12.9096 28.8677 13.2328 28.6639 13.5883 28.6639H17.2437L22.1963 10.1443C22.2889 9.79799 22.5796 9.53843 22.9373 9.48253Z" fill="#FFE9B1"/>
<path d="M30.4624 21.5015C30.4624 22.116 29.9587 22.6141 29.3374 22.6141C28.7161 22.6141 28.2125 22.116 28.2125 21.5015C28.2125 20.887 28.7161 20.3889 29.3374 20.3889C29.9587 20.3889 30.4624 20.887 30.4624 21.5015Z" fill="#FFE9B1"/>
<path fill-rule="evenodd" clip-rule="evenodd" d="M23.8485 9.88617C23.6525 9.58495 23.2951 9.42664 22.9373 9.48253C22.5796 9.53843 22.2889 9.79799 22.1963 10.1443L17.2437 28.6639H13.5883C13.2328 28.6639 12.9096 28.8677 12.7596 29.1865L7.55678 40.243C7.42504 40.523 7.4469 40.8501 7.61476 41.1104L7.21852 41.3659C6.96271 40.969 6.92915 40.4696 7.13022 40.0423L12.3331 28.9857C12.5617 28.4999 13.0523 28.1925 13.5883 28.1925H16.8818L21.7409 10.0225C21.8824 9.49354 22.3248 9.10108 22.8646 9.01675C23.404 8.93248 23.9453 9.17067 24.2436 9.62902L27.7716 15.0498H43.3288C43.7947 15.0498 44.2311 15.2825 44.4879 15.6718C44.745 16.0617 44.786 16.5546 44.596 16.9813L41.2212 24.561C41.1323 24.7606 40.997 24.9361 40.8268 25.0731L33.5016 30.9716L34.9949 40.411C35.1144 41.1667 34.5916 41.8671 33.8396 41.9834C33.0888 42.0996 32.3769 41.5922 32.2576 40.8378L30.8243 31.7778H27.0172C26.461 31.7778 25.9555 31.4469 25.7391 30.9331L24.3329 27.5953C24.0358 26.8899 24.3751 26.0847 25.0799 25.7942C25.7821 25.5048 26.5932 25.8312 26.8892 26.5338L27.9395 29.0269H31.5179L38.8219 23.1455L41.2017 17.8007H27.0172C26.5485 17.8007 26.1096 17.5651 25.8536 17.1717L23.6155 13.7329L19.2865 29.9209C19.1245 30.5267 18.5725 30.9433 17.9474 30.9433H14.4702L10.5618 39.249H23.783C24.5433 39.249 25.1685 39.8599 25.1685 40.6244C25.1685 41.3889 24.5433 41.9999 23.783 41.9999H8.38544C7.91456 41.9999 7.474 41.7622 7.21852 41.3659L7.61476 41.1104C7.78261 41.3708 8.07323 41.5284 8.38544 41.5284H23.783C24.2878 41.5284 24.697 41.1237 24.697 40.6244C24.697 40.1252 24.2878 39.7204 23.783 39.7204H9.81899L14.171 30.4719H17.9474C18.3622 30.4719 18.725 30.1957 18.831 29.7991L23.4335 12.5889L26.2487 16.9145C26.4169 17.173 26.7064 17.3292 27.0172 17.3292H41.9276L39.2062 23.4413L31.6841 29.4984H27.6266L26.4548 26.7169C26.2606 26.256 25.7255 26.0381 25.2595 26.2301C24.7935 26.4221 24.5732 26.9514 24.7674 27.4122L26.1735 30.7501C26.3154 31.0869 26.6482 31.3064 27.0172 31.3064H31.227L32.7232 40.7642C32.8012 41.2574 33.2688 41.5947 33.7675 41.5176C34.2663 41.4404 34.6073 40.978 34.5293 40.4847L32.9933 30.7756L40.5311 24.7059C40.6433 24.6156 40.7322 24.5002 40.7905 24.3692L44.1653 16.7896C44.2898 16.51 44.2631 16.1872 44.0944 15.9314C43.9256 15.6755 43.6377 15.5213 43.3288 15.5213H27.5159L23.8485 9.88617ZM30.9338 21.5015C30.9338 22.3812 30.2142 23.0856 29.3374 23.0856C28.4607 23.0856 27.741 22.3812 27.741 21.5015C27.741 20.6218 28.4607 19.9175 29.3374 19.9175C30.2142 19.9175 30.9338 20.6218 30.9338 21.5015ZM29.3374 22.6141C29.9587 22.6141 30.4624 22.116 30.4624 21.5015C30.4624 20.887 29.9587 20.3889 29.3374 20.3889C28.7161 20.3889 28.2125 20.887 28.2125 21.5015C28.2125 22.116 28.7161 22.6141 29.3374 22.6141Z" fill="#FFE9B1"/>
</svg>
